<mxfile host="app.diagrams.net" modified="2024-07-19T04:19:19.201Z" agent="Mozilla/5.0 (Windows NT 10.0; Win64; x64) AppleWebKit/537.36 (KHTML, like Gecko) Chrome/126.0.0.0 Safari/537.36" etag="NdvsJgB09fKge2PnryVl" version="24.7.1" type="google">
  <diagram name="Page-1" id="BtW3WnU052XNkjMfENVB">
    <mxGraphModel grid="1" page="1" gridSize="10" guides="1" tooltips="1" connect="1" arrows="1" fold="1" pageScale="1" pageWidth="1100" pageHeight="850" math="0" shadow="0">
      <root>
        <mxCell id="0" />
        <mxCell id="1" parent="0" />
        <mxCell id="HVsmWcghpO9nTqmXt6s0-1" value="Plant" style="swimlane;fontStyle=0;childLayout=stackLayout;horizontal=1;startSize=52;fillColor=none;horizontalStack=0;resizeParent=1;resizeParentMax=0;resizeLast=0;collapsible=1;marginBottom=0;whiteSpace=wrap;html=1;" vertex="1" parent="1">
          <mxGeometry x="1150" y="150" width="140" height="52" as="geometry" />
        </mxCell>
        <mxCell id="HVsmWcghpO9nTqmXt6s0-2" value="Trees" style="swimlane;fontStyle=0;childLayout=stackLayout;horizontal=1;startSize=26;fillColor=none;horizontalStack=0;resizeParent=1;resizeParentMax=0;resizeLast=0;collapsible=1;marginBottom=0;whiteSpace=wrap;html=1;" vertex="1" parent="1">
          <mxGeometry x="190" y="461" width="140" height="52" as="geometry" />
        </mxCell>
        <mxCell id="HVsmWcghpO9nTqmXt6s0-3" value="Willow" style="swimlane;fontStyle=0;childLayout=stackLayout;horizontal=1;startSize=26;fillColor=none;horizontalStack=0;resizeParent=1;resizeParentMax=0;resizeLast=0;collapsible=1;marginBottom=0;whiteSpace=wrap;html=1;" vertex="1" parent="1">
          <mxGeometry x="50" y="571" width="140" height="52" as="geometry" />
        </mxCell>
        <mxCell id="HVsmWcghpO9nTqmXt6s0-4" value="Herbs" style="swimlane;fontStyle=0;childLayout=stackLayout;horizontal=1;startSize=26;fillColor=none;horizontalStack=0;resizeParent=1;resizeParentMax=0;resizeLast=0;collapsible=1;marginBottom=0;whiteSpace=wrap;html=1;" vertex="1" parent="1">
          <mxGeometry x="1050" y="451" width="140" height="52" as="geometry" />
        </mxCell>
        <mxCell id="HVsmWcghpO9nTqmXt6s0-5" value="Shrubs" style="swimlane;fontStyle=0;childLayout=stackLayout;horizontal=1;startSize=26;fillColor=none;horizontalStack=0;resizeParent=1;resizeParentMax=0;resizeLast=0;collapsible=1;marginBottom=0;whiteSpace=wrap;html=1;" vertex="1" parent="1">
          <mxGeometry x="600" y="461" width="140" height="52" as="geometry" />
        </mxCell>
        <mxCell id="HVsmWcghpO9nTqmXt6s0-6" value="Jasmine" style="swimlane;fontStyle=0;childLayout=stackLayout;horizontal=1;startSize=26;fillColor=none;horizontalStack=0;resizeParent=1;resizeParentMax=0;resizeLast=0;collapsible=1;marginBottom=0;whiteSpace=wrap;html=1;" vertex="1" parent="1">
          <mxGeometry x="510" y="569" width="140" height="52" as="geometry" />
        </mxCell>
        <mxCell id="HVsmWcghpO9nTqmXt6s0-7" value="Parsley" style="swimlane;fontStyle=0;childLayout=stackLayout;horizontal=1;startSize=26;fillColor=none;horizontalStack=0;resizeParent=1;resizeParentMax=0;resizeLast=0;collapsible=1;marginBottom=0;whiteSpace=wrap;html=1;" vertex="1" parent="1">
          <mxGeometry x="940" y="569" width="140" height="52" as="geometry" />
        </mxCell>
        <mxCell id="HVsmWcghpO9nTqmXt6s0-8" value="Rosemary" style="swimlane;fontStyle=0;childLayout=stackLayout;horizontal=1;startSize=30;fillColor=none;horizontalStack=0;resizeParent=1;resizeParentMax=0;resizeLast=0;collapsible=1;marginBottom=0;whiteSpace=wrap;html=1;" vertex="1" parent="1">
          <mxGeometry x="1150" y="569" width="140" height="52" as="geometry" />
        </mxCell>
        <mxCell id="HVsmWcghpO9nTqmXt6s0-9" value="Oak" style="swimlane;fontStyle=0;childLayout=stackLayout;horizontal=1;startSize=26;fillColor=none;horizontalStack=0;resizeParent=1;resizeParentMax=0;resizeLast=0;collapsible=1;marginBottom=0;whiteSpace=wrap;html=1;" vertex="1" parent="1">
          <mxGeometry x="300" y="571" width="140" height="52" as="geometry" />
        </mxCell>
        <mxCell id="HVsmWcghpO9nTqmXt6s0-10" value="Magnolia" style="swimlane;fontStyle=0;childLayout=stackLayout;horizontal=1;startSize=26;fillColor=none;horizontalStack=0;resizeParent=1;resizeParentMax=0;resizeLast=0;collapsible=1;marginBottom=0;whiteSpace=wrap;html=1;" vertex="1" parent="1">
          <mxGeometry x="710" y="569" width="140" height="52" as="geometry" />
        </mxCell>
        <mxCell id="HVsmWcghpO9nTqmXt6s0-11" value="" style="endArrow=block;endSize=16;endFill=0;html=1;rounded=0;entryX=0.25;entryY=1;entryDx=0;entryDy=0;exitX=0.5;exitY=0;exitDx=0;exitDy=0;" edge="1" parent="1" source="HVsmWcghpO9nTqmXt6s0-3" target="HVsmWcghpO9nTqmXt6s0-2">
          <mxGeometry width="160" relative="1" as="geometry">
            <mxPoint x="100" y="731" as="sourcePoint" />
            <mxPoint x="260" y="731" as="targetPoint" />
          </mxGeometry>
        </mxCell>
        <mxCell id="HVsmWcghpO9nTqmXt6s0-12" value="" style="endArrow=block;endSize=16;endFill=0;html=1;rounded=0;entryX=0.75;entryY=1;entryDx=0;entryDy=0;exitX=0.5;exitY=0;exitDx=0;exitDy=0;" edge="1" parent="1" source="HVsmWcghpO9nTqmXt6s0-9" target="HVsmWcghpO9nTqmXt6s0-2">
          <mxGeometry width="160" relative="1" as="geometry">
            <mxPoint x="240" y="741" as="sourcePoint" />
            <mxPoint x="380" y="683" as="targetPoint" />
          </mxGeometry>
        </mxCell>
        <mxCell id="HVsmWcghpO9nTqmXt6s0-13" value="" style="endArrow=block;endSize=16;endFill=0;html=1;rounded=0;entryX=0.25;entryY=1;entryDx=0;entryDy=0;exitX=0.5;exitY=0;exitDx=0;exitDy=0;" edge="1" parent="1" source="HVsmWcghpO9nTqmXt6s0-6" target="HVsmWcghpO9nTqmXt6s0-5">
          <mxGeometry width="160" relative="1" as="geometry">
            <mxPoint x="430" y="471" as="sourcePoint" />
            <mxPoint x="570" y="413" as="targetPoint" />
          </mxGeometry>
        </mxCell>
        <mxCell id="HVsmWcghpO9nTqmXt6s0-14" value="" style="endArrow=block;endSize=16;endFill=0;html=1;rounded=0;entryX=0.75;entryY=1;entryDx=0;entryDy=0;exitX=0.5;exitY=0;exitDx=0;exitDy=0;" edge="1" parent="1" source="HVsmWcghpO9nTqmXt6s0-10" target="HVsmWcghpO9nTqmXt6s0-5">
          <mxGeometry width="160" relative="1" as="geometry">
            <mxPoint x="770" y="511" as="sourcePoint" />
            <mxPoint x="910" y="453" as="targetPoint" />
          </mxGeometry>
        </mxCell>
        <mxCell id="HVsmWcghpO9nTqmXt6s0-15" value="" style="endArrow=block;endSize=16;endFill=0;html=1;rounded=0;entryX=0;entryY=1;entryDx=0;entryDy=0;exitX=0.5;exitY=0;exitDx=0;exitDy=0;" edge="1" parent="1" source="HVsmWcghpO9nTqmXt6s0-2" target="HVsmWcghpO9nTqmXt6s0-1">
          <mxGeometry width="160" relative="1" as="geometry">
            <mxPoint x="450" y="550" as="sourcePoint" />
            <mxPoint x="590" y="492" as="targetPoint" />
          </mxGeometry>
        </mxCell>
        <mxCell id="HVsmWcghpO9nTqmXt6s0-16" value="" style="endArrow=block;endSize=16;endFill=0;html=1;rounded=0;entryX=0.25;entryY=1;entryDx=0;entryDy=0;exitX=0.5;exitY=0;exitDx=0;exitDy=0;" edge="1" parent="1" source="HVsmWcghpO9nTqmXt6s0-5" target="HVsmWcghpO9nTqmXt6s0-1">
          <mxGeometry width="160" relative="1" as="geometry">
            <mxPoint x="620" y="560" as="sourcePoint" />
            <mxPoint x="760" y="502" as="targetPoint" />
          </mxGeometry>
        </mxCell>
        <mxCell id="HVsmWcghpO9nTqmXt6s0-17" value="" style="endArrow=block;endSize=16;endFill=0;html=1;rounded=0;entryX=0.5;entryY=1;entryDx=0;entryDy=0;exitX=0.5;exitY=0;exitDx=0;exitDy=0;" edge="1" parent="1" source="HVsmWcghpO9nTqmXt6s0-4" target="HVsmWcghpO9nTqmXt6s0-1">
          <mxGeometry width="160" relative="1" as="geometry">
            <mxPoint x="750" y="550" as="sourcePoint" />
            <mxPoint x="890" y="492" as="targetPoint" />
          </mxGeometry>
        </mxCell>
        <mxCell id="HVsmWcghpO9nTqmXt6s0-18" value="" style="endArrow=block;endSize=16;endFill=0;html=1;rounded=0;exitX=0.5;exitY=0;exitDx=0;exitDy=0;entryX=0.25;entryY=1;entryDx=0;entryDy=0;" edge="1" parent="1" source="HVsmWcghpO9nTqmXt6s0-7" target="HVsmWcghpO9nTqmXt6s0-4">
          <mxGeometry width="160" relative="1" as="geometry">
            <mxPoint x="980" y="521" as="sourcePoint" />
            <mxPoint x="1070" y="521" as="targetPoint" />
          </mxGeometry>
        </mxCell>
        <mxCell id="HVsmWcghpO9nTqmXt6s0-19" value="" style="endArrow=block;endSize=16;endFill=0;html=1;rounded=0;entryX=0.75;entryY=1;entryDx=0;entryDy=0;exitX=0.5;exitY=0;exitDx=0;exitDy=0;" edge="1" parent="1" source="HVsmWcghpO9nTqmXt6s0-8" target="HVsmWcghpO9nTqmXt6s0-4">
          <mxGeometry width="160" relative="1" as="geometry">
            <mxPoint x="1170" y="531" as="sourcePoint" />
            <mxPoint x="1310" y="473" as="targetPoint" />
          </mxGeometry>
        </mxCell>
        <mxCell id="HVsmWcghpO9nTqmXt6s0-21" value="Vascular System" style="swimlane;fontStyle=0;childLayout=stackLayout;horizontal=1;startSize=26;fillColor=none;horizontalStack=0;resizeParent=1;resizeParentMax=0;resizeLast=0;collapsible=1;marginBottom=0;whiteSpace=wrap;html=1;" vertex="1" parent="1">
          <mxGeometry x="1540" y="370" width="140" height="52" as="geometry" />
        </mxCell>
        <mxCell id="HVsmWcghpO9nTqmXt6s0-22" value="Leaves" style="swimlane;fontStyle=0;childLayout=stackLayout;horizontal=1;startSize=26;fillColor=none;horizontalStack=0;resizeParent=1;resizeParentMax=0;resizeLast=0;collapsible=1;marginBottom=0;whiteSpace=wrap;html=1;" vertex="1" parent="1">
          <mxGeometry x="1350" y="503" width="140" height="52" as="geometry" />
        </mxCell>
        <mxCell id="HVsmWcghpO9nTqmXt6s0-23" value="Flowers" style="swimlane;fontStyle=0;childLayout=stackLayout;horizontal=1;startSize=26;fillColor=none;horizontalStack=0;resizeParent=1;resizeParentMax=0;resizeLast=0;collapsible=1;marginBottom=0;whiteSpace=wrap;html=1;" vertex="1" parent="1">
          <mxGeometry x="1620" y="503" width="140" height="52" as="geometry" />
        </mxCell>
        <mxCell id="HVsmWcghpO9nTqmXt6s0-24" value="Support System" style="swimlane;fontStyle=0;childLayout=stackLayout;horizontal=1;startSize=26;fillColor=none;horizontalStack=0;resizeParent=1;resizeParentMax=0;resizeLast=0;collapsible=1;marginBottom=0;whiteSpace=wrap;html=1;" vertex="1" parent="1">
          <mxGeometry x="1980" y="380" width="140" height="52" as="geometry" />
        </mxCell>
        <mxCell id="HVsmWcghpO9nTqmXt6s0-25" value="Stem" style="swimlane;fontStyle=0;childLayout=stackLayout;horizontal=1;startSize=26;fillColor=none;horizontalStack=0;resizeParent=1;resizeParentMax=0;resizeLast=0;collapsible=1;marginBottom=0;whiteSpace=wrap;html=1;" vertex="1" parent="1">
          <mxGeometry x="1900" y="503" width="140" height="52" as="geometry" />
        </mxCell>
        <mxCell id="HVsmWcghpO9nTqmXt6s0-26" value="" style="endArrow=diamondThin;endFill=0;endSize=24;html=1;rounded=0;exitX=0.5;exitY=0;exitDx=0;exitDy=0;entryX=0.75;entryY=1;entryDx=0;entryDy=0;" edge="1" parent="1" source="HVsmWcghpO9nTqmXt6s0-21" target="HVsmWcghpO9nTqmXt6s0-1">
          <mxGeometry width="160" relative="1" as="geometry">
            <mxPoint x="1470.98" y="480" as="sourcePoint" />
            <mxPoint x="1350" y="402" as="targetPoint" />
          </mxGeometry>
        </mxCell>
        <mxCell id="HVsmWcghpO9nTqmXt6s0-27" value="" style="endArrow=diamondThin;endFill=0;endSize=24;html=1;rounded=0;exitX=0.5;exitY=0;exitDx=0;exitDy=0;entryX=0.25;entryY=1;entryDx=0;entryDy=0;" edge="1" parent="1" source="HVsmWcghpO9nTqmXt6s0-22" target="HVsmWcghpO9nTqmXt6s0-21">
          <mxGeometry width="160" relative="1" as="geometry">
            <mxPoint x="1740" y="530" as="sourcePoint" />
            <mxPoint x="1900" y="530" as="targetPoint" />
          </mxGeometry>
        </mxCell>
        <mxCell id="HVsmWcghpO9nTqmXt6s0-28" value="" style="endArrow=diamondThin;endFill=0;endSize=24;html=1;rounded=0;exitX=0.5;exitY=0;exitDx=0;exitDy=0;entryX=0.75;entryY=1;entryDx=0;entryDy=0;" edge="1" parent="1" source="HVsmWcghpO9nTqmXt6s0-23" target="HVsmWcghpO9nTqmXt6s0-21">
          <mxGeometry width="160" relative="1" as="geometry">
            <mxPoint x="1470" y="490" as="sourcePoint" />
            <mxPoint x="1650" y="430" as="targetPoint" />
          </mxGeometry>
        </mxCell>
        <mxCell id="HVsmWcghpO9nTqmXt6s0-29" value="" style="endArrow=diamondThin;endFill=0;endSize=24;html=1;rounded=0;exitX=0.5;exitY=0;exitDx=0;exitDy=0;entryX=0.5;entryY=1;entryDx=0;entryDy=0;" edge="1" parent="1" source="HVsmWcghpO9nTqmXt6s0-25" target="HVsmWcghpO9nTqmXt6s0-24">
          <mxGeometry width="160" relative="1" as="geometry">
            <mxPoint x="1770" y="430" as="sourcePoint" />
            <mxPoint x="1865" y="392" as="targetPoint" />
          </mxGeometry>
        </mxCell>
        <mxCell id="HVsmWcghpO9nTqmXt6s0-30" value="" style="endArrow=diamondThin;endFill=0;endSize=24;html=1;rounded=0;exitX=0.5;exitY=0;exitDx=0;exitDy=0;entryX=1;entryY=1;entryDx=0;entryDy=0;" edge="1" parent="1" source="HVsmWcghpO9nTqmXt6s0-24" target="HVsmWcghpO9nTqmXt6s0-1">
          <mxGeometry width="160" relative="1" as="geometry">
            <mxPoint x="1850" y="420" as="sourcePoint" />
            <mxPoint x="1860" y="402" as="targetPoint" />
            <Array as="points" />
          </mxGeometry>
        </mxCell>
        <mxCell id="HVsmWcghpO9nTqmXt6s0-31" value="Roots" style="swimlane;fontStyle=0;childLayout=stackLayout;horizontal=1;startSize=26;fillColor=none;horizontalStack=0;resizeParent=1;resizeParentMax=0;resizeLast=0;collapsible=1;marginBottom=0;whiteSpace=wrap;html=1;" vertex="1" parent="1">
          <mxGeometry x="2110" y="500" width="140" height="52" as="geometry" />
        </mxCell>
        <mxCell id="HVsmWcghpO9nTqmXt6s0-32" value="" style="endArrow=diamondThin;endFill=0;endSize=24;html=1;rounded=0;exitX=0.5;exitY=0;exitDx=0;exitDy=0;entryX=0.75;entryY=1;entryDx=0;entryDy=0;" edge="1" parent="1" source="HVsmWcghpO9nTqmXt6s0-31" target="HVsmWcghpO9nTqmXt6s0-24">
          <mxGeometry width="160" relative="1" as="geometry">
            <mxPoint x="2040" y="410" as="sourcePoint" />
            <mxPoint x="2080" y="322" as="targetPoint" />
          </mxGeometry>
        </mxCell>
        <mxCell id="HVsmWcghpO9nTqmXt6s0-33" value="" style="endArrow=diamondThin;endFill=0;endSize=24;html=1;rounded=0;entryX=0.5;entryY=1;entryDx=0;entryDy=0;exitX=0.5;exitY=0;exitDx=0;exitDy=0;" edge="1" parent="1" source="HVsmWcghpO9nTqmXt6s0-34" target="HVsmWcghpO9nTqmXt6s0-31">
          <mxGeometry width="160" relative="1" as="geometry">
            <mxPoint x="2030" y="580" as="sourcePoint" />
            <mxPoint x="2050" y="640" as="targetPoint" />
          </mxGeometry>
        </mxCell>
        <mxCell id="HVsmWcghpO9nTqmXt6s0-34" value="Root Hairs" style="swimlane;fontStyle=0;childLayout=stackLayout;horizontal=1;startSize=26;fillColor=none;horizontalStack=0;resizeParent=1;resizeParentMax=0;resizeLast=0;collapsible=1;marginBottom=0;whiteSpace=wrap;html=1;" vertex="1" parent="1">
          <mxGeometry x="2110" y="590" width="140" height="52" as="geometry" />
        </mxCell>
        <mxCell id="HVsmWcghpO9nTqmXt6s0-35" value="Veins" style="swimlane;fontStyle=0;childLayout=stackLayout;horizontal=1;startSize=26;fillColor=none;horizontalStack=0;resizeParent=1;resizeParentMax=0;resizeLast=0;collapsible=1;marginBottom=0;whiteSpace=wrap;html=1;" vertex="1" parent="1">
          <mxGeometry x="1330" y="590" width="140" height="52" as="geometry" />
        </mxCell>
        <mxCell id="HVsmWcghpO9nTqmXt6s0-36" value="Petals" style="swimlane;fontStyle=0;childLayout=stackLayout;horizontal=1;startSize=26;fillColor=none;horizontalStack=0;resizeParent=1;resizeParentMax=0;resizeLast=0;collapsible=1;marginBottom=0;whiteSpace=wrap;html=1;" vertex="1" parent="1">
          <mxGeometry x="1620" y="590" width="140" height="52" as="geometry" />
        </mxCell>
        <mxCell id="HVsmWcghpO9nTqmXt6s0-37" value="Nodes" style="swimlane;fontStyle=0;childLayout=stackLayout;horizontal=1;startSize=26;fillColor=none;horizontalStack=0;resizeParent=1;resizeParentMax=0;resizeLast=0;collapsible=1;marginBottom=0;whiteSpace=wrap;html=1;" vertex="1" parent="1">
          <mxGeometry x="1890" y="590" width="140" height="52" as="geometry" />
        </mxCell>
        <mxCell id="HVsmWcghpO9nTqmXt6s0-38" value="" style="endArrow=diamondThin;endFill=0;endSize=24;html=1;rounded=0;exitX=0.5;exitY=0;exitDx=0;exitDy=0;entryX=0.5;entryY=1;entryDx=0;entryDy=0;" edge="1" parent="1" source="HVsmWcghpO9nTqmXt6s0-35" target="HVsmWcghpO9nTqmXt6s0-22">
          <mxGeometry width="160" relative="1" as="geometry">
            <mxPoint x="1530" y="560" as="sourcePoint" />
            <mxPoint x="1685" y="479" as="targetPoint" />
          </mxGeometry>
        </mxCell>
        <mxCell id="HVsmWcghpO9nTqmXt6s0-39" value="" style="endArrow=diamondThin;endFill=0;endSize=24;html=1;rounded=0;entryX=0.5;entryY=1;entryDx=0;entryDy=0;exitX=0.5;exitY=0;exitDx=0;exitDy=0;" edge="1" parent="1" source="HVsmWcghpO9nTqmXt6s0-36" target="HVsmWcghpO9nTqmXt6s0-23">
          <mxGeometry width="160" relative="1" as="geometry">
            <mxPoint x="1680" y="590" as="sourcePoint" />
            <mxPoint x="1725" y="579" as="targetPoint" />
          </mxGeometry>
        </mxCell>
        <mxCell id="HVsmWcghpO9nTqmXt6s0-40" value="" style="endArrow=diamondThin;endFill=0;endSize=24;html=1;rounded=0;exitX=0.5;exitY=0;exitDx=0;exitDy=0;entryX=0.5;entryY=1;entryDx=0;entryDy=0;" edge="1" parent="1" source="HVsmWcghpO9nTqmXt6s0-37" target="HVsmWcghpO9nTqmXt6s0-25">
          <mxGeometry width="160" relative="1" as="geometry">
            <mxPoint x="2000" y="720" as="sourcePoint" />
            <mxPoint x="2155" y="639" as="targetPoint" />
          </mxGeometry>
        </mxCell>
      </root>
    </mxGraphModel>
  </diagram>
</mxfile>
